<svg xmlns="http://www.w3.org/2000/svg" xmlns:xlink="http://www.w3.org/1999/xlink" viewBox="0 0 273 273"><defs><style>.cls-1{fill:none;}.cls-2{fill:#ffedd8;}.cls-3{clip-path:url(#clip-path);}.cls-4{fill:#3c362d;}.cls-5{fill:#fbb36b;}.cls-6{fill:#fece8b;}.cls-7{fill:#9a1f22;}.cls-8{fill:#564d47;}.cls-9{fill:#f04b3a;}.cls-10{fill:#be202e;}.cls-11{fill:#a87d50;}.cls-12{fill:#754d29;}.cls-13{fill:#c3996b;}</style><clipPath id="clip-path"><circle class="cls-1" cx="136.5" cy="136.5" r="136.5"/></clipPath></defs><title>stacy</title><g id="Layer_2" data-name="Layer 2"><g id="Layer_1-2" data-name="Layer 1"><circle class="cls-2" cx="136.5" cy="136.5" r="136.5"/><g class="cls-3"><path class="cls-4" d="M115.6,215.6S85.2,214.1,78.7,197s.8-19.8,1.5-30-10.3,6.1-8.4,14.8l1.9,8.7s-7.6-7.2-4.9-21.3S83.6,141.1,82.5,127s-.8-3,0-30.8S103,33.9,138.4,33.9s68.4,15.6,55.5,86.6-30.8,65-26.2,79.8,7.2,17.5,7.2,17.5Z"/><path class="cls-5" d="M102.2,134.4a12.29,12.29,0,0,1-12.3,12.3h0a12.29,12.29,0,0,1-12.3-12.3V124.3A12.29,12.29,0,0,1,89.9,112h0a12.29,12.29,0,0,1,12.3,12.3Z"/><path class="cls-5" d="M170.2,144.3a12.29,12.29,0,0,0,12.3,12.3h0a12.29,12.29,0,0,0,12.3-12.3V134.2a12.29,12.29,0,0,0-12.3-12.3h0a12.29,12.29,0,0,0-12.3,12.3Z"/><path class="cls-6" d="M186.4,205.7c-22.1-5.5-41.1-8.8-47.7-9.9v-.4a11.31,11.31,0,0,1-1.2.2,11.31,11.31,0,0,1-1.2-.2v.4c-6.6,1.1-25.6,4.4-47.7,9.9C61.2,212.5,62.4,273,62.4,273H212.7S213.8,212.5,186.4,205.7Z"/><path class="cls-7" d="M115.5,202.3s-2.3-7.1-2-8.8.6-3.1,2.3-3.7,12.5,6,26.5,3.7,21.1-9.4,25.1-4.6-5.7,14.8-8.3,16.2a28,28,0,0,1-18,3.4C131.8,207.4,115.5,202.3,115.5,202.3Z"/><path class="cls-5" d="M145.6,178.4l-8.3-1.7-8.3,1.7s-6.3,17.1-6.3,24.5,14.5,10.8,14.5,10.8,14.5-3.4,14.5-10.8C151.9,195.5,145.6,178.4,145.6,178.4Z"/><path class="cls-8" d="M92.5,242.5l-7.7-35.6s-10,6.5-19.1,29.6c0,0-.3,17.1,18.5,17.1Z"/><path class="cls-8" d="M182.5,242.5l7.7-35.6s10,8.5,19.1,31.6c0,0,.3,15.1-18.5,15.1Z"/><path class="cls-8" d="M82.1,208.8A200.12,200.12,0,0,1,85,240.7,131.84,131.84,0,0,0,79.4,273H194.3a133.05,133.05,0,0,0-5.6-32.3,198.83,198.83,0,0,1,3-32.7,16.53,16.53,0,0,0-5.3-2.2c-3.5-.9-6.9-1.7-10.3-2.4-3.6,27.7-33.8,32.5-39.3,33.1-5.5-.6-35.6-5.4-39.3-32.8-2.9.7-5.9,1.4-8.9,2.2A15.89,15.89,0,0,0,82.1,208.8Z"/><path class="cls-6" d="M137.5,60.9,90.4,79.6v50.8c0,46.9,47.1,63.8,47.1,63.8s47.1-17,47.1-63.8V79.6Z"/><path class="cls-4" d="M162.2,126.4c-.2,3.9-1.7,7-3.4,6.9s-2.9-3.3-2.7-7.2,1.7-6.9,3.4-6.9S162.4,122.5,162.2,126.4Z"/><path class="cls-4" d="M117.3,125.8c-.2,3.9-1.7,6.9-3.4,6.9s-2.9-3.3-2.7-7.2,1.7-7,3.4-6.9S117.5,121.9,117.3,125.8Z"/><path class="cls-5" d="M147.2,158.3l-10.3-7.4-9.1,6.4s3.2,6.4,9.3,5.8A17.35,17.35,0,0,0,147.2,158.3Z"/><path class="cls-4" d="M103.7,106.3a15.45,15.45,0,0,1,10.3-.8c5.5,1.5,6.7,5.1,8.6,5.4s4.5-.9,4.8-2.8S113.6,95.7,103.7,106.3Z"/><path class="cls-4" d="M172.6,116.6a16.24,16.24,0,0,0-9.5-4.2c-5.7-.4-8,2.7-9.9,2.3s-4-2.3-3.6-4.2S166.7,103.3,172.6,116.6Z"/><path class="cls-9" d="M121.9,169.4a1.14,1.14,0,0,1,.5-1.5h0a1.14,1.14,0,0,1,1.5.5h0c.1-.1,1.9,4.7,13.2,4.8h0c11.3,0,15.6-5.6,15.6-5.6h0a1.13,1.13,0,0,1,1.6-.2h0a1.13,1.13,0,0,1,.2,1.6h0c-.1.2-5.3,6.4-17.4,6.4h-.2c-11.8.1-14.9-5.7-15-6Z"/><path class="cls-4" d="M132,51.8s-4.2,33.4-20.5,42.6-17.1,28.1-18.2,45.2,11,51.7,11,51.7S93.7,181.4,88,149.1s-2.3-63.5,1.5-80.2S132,51.8,132,51.8Z"/><path class="cls-4" d="M139.2,55.5s7.6,32.8,24.8,40.2,19.9,26.2,22.8,43.1-5.6,52.5-5.6,52.5,9.6-10.9,11.9-43.6-4.3-63.4-9.8-79.6S139.2,55.5,139.2,55.5Z"/><path class="cls-4" d="M107.3,97s37.2-9.9,44.8-27l-1.5-20.1s-20.1-2.7-31.2,4.9S107.3,97,107.3,97Z"/><path class="cls-7" d="M141.2,215.1a30.59,30.59,0,0,0-11.7,20.5c-1.7,13.7,1.1,27.9,1.7,30.2s-7.1,4.6-11.7,1.7-4.6-6.3-6.8-3.7-5.7-25.1-5.7-37.9,11.4-17.4,11.4-17.4Z"/><path class="cls-10" d="M115.8,189.7s8.8,12,24.2,11.1,21.9-11.7,27.4-12,3.7,7.4,3.7,7.4,4.6,3.1,3.7,8.5-17.4,21.1-40.5,15.4-31.6-15.4-31.9-18.8,6.3-4.3,6.3-4.3A7.92,7.92,0,0,1,115.8,189.7Z"/><path class="cls-11" d="M60.3,273h52.2V220.6s6,4.3,8.3,3.4,4.8-9.7,4.8-9.7-20.2-8.8-21.9-11.7-1.4-7.4-1.7-8.3-4.8-1.7-6.8-.6-2.3,6.8-2.3,7.7-12,4.6-19.4,12.3-5.7,3.7-8.8,12.8C61.4,235.6,60.3,273,60.3,273Z"/><path class="cls-12" d="M119.2,220.2c-4.3.3-15.7-7.4-19.4-10.3s-5.1-9.1-5.1-9.1-1.7,5.4,0,8.3,15.4,11.1,15.4,11.1V273h2.3V220.6s6,4.3,8.3,3.4,4.8-9.7,4.8-9.7l-1.6-.7C123.2,216.5,121.8,220,119.2,220.2Z"/><path class="cls-12" d="M86.1,273c-.2-4.4,0-15.5,4.9-24.3v-6.2s-4.6-8-4.8-9.2-.9,4.3,2.6,9.1c0,0-6.9,9.7-7.6,30.5h4.9Z"/><path class="cls-13" d="M66,221.9s4.6,3.4,6.8,3.1S86.2,210.8,89,209.3s-1.1-6-1.1-6S75.1,205.7,66,221.9Z"/><path class="cls-11" d="M212.7,273H160.6V220.6s-6,4.3-8.3,3.4-4.8-9.7-4.8-9.7,20.2-8.8,21.9-11.7,1.4-7.4,1.7-8.3,4.8-1.7,6.8-.6,2.3,6.8,2.3,7.7,12,4.6,19.4,12.3,5.7,3.7,8.8,12.8S212.7,273,212.7,273Z"/><path class="cls-12" d="M153.7,220.2c4.3.3,15.7-7.4,19.4-10.3s5.1-9.1,5.1-9.1,1.7,5.4,0,8.3-15.4,11.1-15.4,11.1V273h-2.2V220.6s-6,4.3-8.3,3.4-4.8-9.7-4.8-9.7l1.6-.7C149.8,216.5,151.2,220,153.7,220.2Z"/><path class="cls-12" d="M186.9,273c.2-4.4,0-15.5-4.9-24.3v-6.2s4.6-8,4.8-9.2.9,4.3-2.6,9.1c0,0,6.9,9.7,7.6,30.5h-4.9Z"/><path class="cls-13" d="M207,221.9s-4.6,3.4-6.8,3.1-13.4-14.2-16.2-15.7,1.1-6,1.1-6S197.9,205.7,207,221.9Z"/></g></g></g></svg>